# xmcd
#
# Track frame offsets:
#	182
#	14410
#	26377
#	37807
#	50507
#	62945
#	75930
#	93487
#	111560
#	124162
#	137040
#	157177
#	175050
#	189792
#	205320
#	224820
#	237292
#	246660
#
# Disc length: 3464
#
# Revision: 2
# Processed by: cddbd v1.5.1PL0 Copyright (c) Steve Scherf et al.
# Submitted via: audiograbber 1.81.03
# Normalized: r1:DSETVAR1
#
DISCID=030d8612
DTITLE=Various Artist - De Mooiste slows van allemaal 1-1
DYEAR=1900
DGENRE=Slow Rock
TTITLE0=Michele Torr - Emmene moi danser ce soir
TTITLE1=Johnny Ray - Just walking in the rain
TTITLE2=Dean Martin - In the chapel in the moonlight
TTITLE3=Freddy Quinn - Die gitarre und das meer
TTITLE4=Helen Shapiro - You don't know
TTITLE5=Lucille Starr - The french song
TTITLE6=Fleetwood Mac - I need your love so bad
TTITLE7=Willy Nelson - Help me make it trough the night
TTITLE8=Bobby Vinton - Sealed with a kiss
TTITLE9=Tony Bennett - I left my heart in San Francisco
TTITLE10=Joe Dassin - L'ete indien
TTITLE11=Shariff Dean - Do you love
TTITLE12=Cigliola Cinquetti - Non ho l'eta
TTITLE13=Danyel Gerard - Butterfly
TTITLE14=Barry and Eileen - If you go
TTITLE15=Al Martino - Spanish eyes
TTITLE16=Doris Day - Que sera sera
TTITLE17=The Three Degrees - When will I see you again
EXTD=
EXTT0=
EXTT1=
EXTT2=
EXTT3=
EXTT4=
EXTT5=
EXTT6=
EXTT7=
EXTT8=
EXTT9=
EXTT10=
EXTT11=
EXTT12=
EXTT13=
EXTT14=
EXTT15=
EXTT16=
EXTT17=
PLAYORDER=
